<?xml version="1.0" standalone="no"?>
<!DOCTYPE svg PUBLIC "-//W3C//DTD SVG 20010904//EN"
 "http://www.w3.org/TR/2001/REC-SVG-20010904/DTD/svg10.dtd">
<svg version="1.0" xmlns="http://www.w3.org/2000/svg"
 width="480.000000pt" height="480.000000pt" viewBox="0 0 480.000000 480.000000"
 preserveAspectRatio="xMidYMid meet">
<metadata>
Created by potrace 1.14, written by Peter Selinger 2001-2017
</metadata>
<g transform="translate(0.000000,480.000000) scale(0.100000,-0.100000)"
fill="#000000" stroke="none">
<path d="M2572 4735 c-30 -7 -56 -16 -59 -19 -3 -3 39 -3 93 1 83 4 113 1 184
-17 47 -12 97 -25 113 -27 15 -3 27 -9 27 -13 0 -4 -66 -5 -147 -2 -229 9
-279 6 -373 -23 -68 -20 -97 -24 -145 -19 -61 6 -209 50 -264 79 -17 8 -33 15
-38 15 -17 0 38 -30 100 -55 66 -27 79 -45 32 -45 -27 0 -219 -59 -213 -65 2
-2 33 5 68 16 36 12 104 23 151 26 94 6 187 -3 173 -17 -5 -5 -81 -15 -169
-24 -89 -8 -173 -20 -189 -25 -15 -6 -36 -11 -47 -11 -11 0 -27 -6 -34 -12 -7
-7 -32 -24 -55 -38 -28 -17 -40 -30 -37 -42 3 -10 -4 -23 -18 -32 -35 -23
-120 -98 -124 -110 -2 -6 4 -4 15 4 17 13 16 11 -2 -10 -11 -14 -27 -36 -36
-50 -9 -15 -58 -47 -119 -79 -108 -55 -132 -71 -125 -78 2 -2 27 7 55 21 28
14 53 26 56 26 3 0 -6 -16 -21 -35 -14 -19 -21 -35 -15 -35 7 0 5 -10 -6 -26
-17 -27 -17 -27 5 -15 12 6 27 21 33 32 17 33 24 12 7 -23 -48 -100 -62 -134
-60 -140 1 -5 -7 -8 -18 -8 -14 0 -20 -7 -20 -21 0 -11 4 -18 9 -14 5 3 13 0
17 -6 8 -14 -14 -29 -45 -29 -20 0 -21 -2 -11 -15 14 -17 35 -21 25 -5 -3 6 1
10 10 10 14 0 13 -4 -4 -29 -12 -16 -21 -34 -21 -39 0 -5 -6 -12 -14 -15 -7
-3 -16 -19 -19 -36 -4 -17 -12 -31 -19 -31 -19 0 -41 -37 -25 -43 9 -3 9 -8
-2 -20 -9 -11 -10 -17 -2 -17 21 0 11 -20 -15 -30 -18 -7 -24 -15 -20 -26 3
-8 1 -24 -4 -34 -8 -14 -6 -19 6 -22 13 -2 12 -7 -6 -26 -12 -13 -20 -26 -17
-29 3 -3 1 -16 -4 -30 -8 -20 -7 -24 5 -20 23 9 25 -16 3 -47 l-20 -28 21 11
c22 12 32 -1 12 -14 -17 -10 -11 -25 7 -18 14 4 13 2 -3 -12 -18 -16 -20 -24
-12 -52 7 -24 6 -39 -3 -49 -9 -11 -8 -14 7 -14 14 0 15 -3 6 -12 -7 -7 -12
-20 -12 -29 0 -10 -4 -19 -9 -21 -5 -1 -6 -21 -2 -43 5 -28 3 -47 -7 -63 -13
-19 -13 -23 -1 -20 9 2 13 -4 11 -20 -2 -13 2 -29 8 -37 8 -9 8 -24 2 -47 -10
-38 2 -83 19 -72 8 5 10 -1 6 -18 -5 -18 -2 -28 8 -32 8 -3 14 -10 13 -15 -2
-5 6 -17 17 -26 17 -14 18 -17 5 -22 -29 -12 -68 -63 -76 -100 -4 -21 -8 -112
-9 -203 0 -164 0 -165 -23 -168 -12 -2 -20 -7 -17 -11 2 -5 -13 -11 -35 -15
-22 -3 -40 -10 -40 -14 0 -4 -20 -14 -45 -21 -25 -7 -45 -17 -45 -22 0 -5 -11
-9 -25 -9 -14 0 -25 -3 -25 -8 0 -4 -15 -13 -33 -21 -17 -8 -50 -22 -71 -32
-22 -11 -44 -19 -49 -19 -4 0 -14 -6 -21 -12 -8 -7 -24 -20 -36 -28 -13 -8
-35 -25 -50 -37 -15 -12 -29 -20 -32 -18 -2 3 -23 -11 -46 -31 -23 -19 -50
-36 -61 -37 -11 0 -19 -4 -19 -7 2 -19 -4 -30 -16 -30 -7 0 -21 -11 -32 -24
-10 -14 -21 -23 -24 -21 -4 2 -13 -5 -21 -17 -8 -11 -26 -33 -41 -48 -16 -16
-28 -32 -28 -37 0 -4 -14 -19 -30 -32 -17 -13 -30 -31 -30 -41 0 -9 -9 -28
-20 -42 -15 -20 -16 -28 -7 -37 9 -10 9 -12 -3 -9 -17 4 -20 -30 -5 -52 9 -13
8 -13 -8 -1 -15 12 -20 12 -30 1 -10 -10 -9 -11 3 -6 9 5 8 2 -3 -7 -11 -9
-15 -21 -11 -32 6 -14 3 -16 -17 -11 -20 6 -21 5 -7 -4 9 -6 15 -17 12 -25 -4
-8 -10 -12 -15 -9 -5 3 -6 -2 -3 -10 3 -9 1 -16 -5 -16 -6 0 -8 -7 -5 -15 4
-9 0 -15 -10 -15 -9 0 -16 -7 -16 -16 0 -8 4 -13 9 -9 5 3 13 0 17 -6 5 -8 3
-9 -6 -4 -10 6 -12 4 -6 -11 6 -15 5 -17 -5 -7 -18 18 -25 16 -26 -7 -1 -11 2
-18 7 -15 5 3 11 1 15 -5 3 -5 -1 -10 -10 -10 -15 0 -15 -1 -1 -16 23 -22 20
-28 -6 -10 -29 21 -35 20 -41 -4 -4 -15 0 -20 15 -20 13 0 17 4 12 13 -5 7 -1
7 10 -2 15 -13 16 -15 2 -23 -9 -5 -22 -6 -29 -3 -6 4 2 -6 18 -20 17 -15 24
-24 18 -21 -8 5 -13 1 -13 -8 0 -9 4 -16 10 -16 5 0 17 -11 26 -25 16 -25 11
-65 -9 -65 -8 0 -8 3 0 11 13 13 6 39 -9 39 -5 0 -7 -4 -4 -9 4 -5 -4 -7 -16
-4 -17 3 -19 2 -9 -5 11 -8 11 -10 0 -15 -11 -4 -11 -6 -1 -6 7 -1 20 -7 28
-15 15 -16 20 -51 5 -41 -5 3 -12 1 -16 -5 -3 -5 -1 -11 4 -11 6 -1 16 -3 21
-4 6 -1 15 -3 20 -4 6 0 10 -6 10 -13 0 -9 -3 -9 -12 0 -8 8 -17 8 -30 1 -11
-6 -26 -8 -33 -5 -8 3 -17 0 -21 -6 -5 -8 4 -9 29 -5 25 4 39 1 48 -9 14 -17
10 -23 -21 -29 -39 -8 -35 -15 6 -11 21 2 31 1 21 -1 -9 -2 -17 -8 -17 -13 0
-5 -7 -7 -15 -4 -8 4 -15 1 -15 -4 0 -18 34 -19 60 -3 13 9 21 11 17 4 -4 -6
-4 -13 0 -16 5 -2 2 -2 -5 0 -7 1 -23 -6 -34 -17 -12 -11 -17 -20 -12 -20 14
0 14 -33 1 -41 -6 -4 -1 -15 12 -25 20 -17 20 -19 4 -26 -16 -6 -16 -7 -2 -7
25 -1 33 -31 9 -31 -23 0 -37 -20 -20 -30 6 -4 11 -10 11 -14 -1 -3 0 -8 0
-11 1 -3 2 -13 3 -23 0 -11 7 -26 15 -35 12 -15 11 -17 -8 -17 -18 0 -21 -4
-16 -20 4 -13 1 -22 -9 -26 -10 -4 -14 -17 -12 -40 2 -24 -2 -34 -12 -34 -7 0
-12 -6 -9 -12 2 -7 12 -12 21 -12 23 2 20 -17 -4 -23 -11 -3 -17 -9 -14 -14 3
-5 0 -9 -5 -9 -12 0 -10 -27 2 -47 5 -7 5 -13 0 -13 -4 0 7 -10 26 -22 19 -12
29 -24 23 -26 -18 -6 -14 -39 4 -46 9 -3 21 -3 27 1 7 4 6 -1 -2 -10 -7 -9
-18 -14 -24 -10 -5 3 -7 1 -4 -5 4 -5 17 -8 30 -5 12 3 20 3 17 0 -12 -13 -81
-57 -90 -57 -5 0 -20 -11 -34 -25 l-25 -25 192 -1 c106 0 401 -1 657 -2 l465
-2 -2 35 c-1 19 -4 59 -6 88 -4 42 -2 51 8 42 10 -9 13 -7 10 7 -7 43 39 58
57 18 7 -16 19 -25 34 -25 13 0 25 -8 28 -17 4 -10 21 -25 39 -33 17 -8 32
-22 32 -30 0 -8 7 -30 14 -47 l13 -33 342 -1 c467 -1 694 -1 803 0 l91 1 79
74 c78 73 147 116 189 116 12 0 46 18 74 41 70 55 78 64 129 139 25 36 51 71
58 78 7 8 10 19 6 25 -3 7 -3 9 1 5 10 -8 44 24 39 37 -2 6 7 32 20 58 18 35
21 47 11 47 -8 0 -14 7 -14 16 0 8 -5 12 -10 9 -6 -4 -9 -14 -8 -23 2 -11 -3
-16 -15 -15 -12 1 -17 -4 -13 -14 3 -8 2 -12 -3 -9 -4 3 -16 -3 -26 -14 -9
-10 -23 -16 -30 -14 -16 6 -29 -12 -15 -21 5 -3 10 -12 10 -18 0 -7 -10 -1
-21 13 l-21 25 6 -27 c8 -35 -18 -39 -30 -5 -6 17 -8 12 -11 -27 -4 -42 -7
-47 -24 -43 -11 3 -23 -1 -28 -10 -6 -12 -10 -13 -16 -3 -4 6 -2 17 4 23 6 6
11 18 11 27 0 13 -1 13 -10 0 -9 -13 -11 -13 -20 0 -8 13 -11 13 -19 1 -11
-16 -34 -5 -24 12 3 7 -3 4 -14 -5 -11 -10 -24 -18 -30 -18 -6 0 -13 -7 -16
-15 -4 -9 -14 -12 -29 -8 -13 3 -31 6 -41 6 -10 1 -15 7 -13 14 3 7 0 15 -7
19 -7 4 -9 3 -4 -1 4 -5 -5 -21 -19 -36 l-27 -28 23 -19 c15 -12 20 -23 15
-32 -6 -10 -10 -9 -17 4 -7 13 -13 14 -23 6 -10 -9 -15 -6 -20 10 -5 16 -12
19 -28 14 -19 -6 -20 -5 -8 10 7 9 19 16 25 16 15 0 56 37 56 50 0 6 -11 10
-24 10 -13 0 -35 9 -49 20 -14 11 -35 20 -46 20 -17 0 -20 3 -13 17 5 10 7 23
5 30 -7 20 16 51 39 55 17 2 23 10 23 27 0 13 6 26 13 28 6 3 12 0 12 -6 0 -6
8 -7 17 -4 12 5 15 2 10 -10 -6 -15 -4 -16 16 -6 12 7 25 17 29 23 5 6 8 1 8
-11 0 -25 15 -31 23 -10 4 7 8 3 13 -11 5 -18 9 -20 21 -11 8 7 11 19 8 27 -4
12 -3 13 10 2 13 -11 15 -9 15 14 0 16 5 26 15 26 18 0 19 10 2 42 -7 14 -18
23 -25 20 -7 -2 -12 5 -12 15 0 11 -4 23 -9 28 -5 6 -11 24 -13 40 -2 25 1 31
20 33 14 2 25 -3 29 -15 6 -16 8 -15 13 5 4 17 18 28 57 41 61 21 124 66 117
84 -2 7 7 26 21 41 30 33 32 69 5 96 -11 11 -20 25 -20 32 0 8 5 7 16 -3 14
-14 18 -13 43 10 15 14 30 34 34 44 4 9 15 20 24 24 10 4 38 24 63 46 25 21
60 45 78 52 29 13 32 17 26 42 -9 37 -23 52 -33 35 -7 -11 -10 -10 -15 3 -3 9
-3 22 1 28 4 7 0 8 -13 2 -10 -5 -31 -8 -46 -8 -28 0 -29 -21 -2 -31 26 -10 9
-63 -34 -105 -44 -43 -87 -59 -167 -62 -71 -2 -75 -1 -75 20 0 11 -4 22 -9 26
-9 5 -13 85 -5 85 2 0 10 -15 17 -32 12 -28 19 -33 45 -32 50 2 52 3 52 20 0
8 4 13 9 10 5 -3 11 1 15 9 3 9 12 12 22 8 16 -6 15 -3 -2 20 -14 19 -26 25
-48 22 -20 -2 -38 5 -58 23 l-28 26 24 25 c13 14 27 36 30 48 4 11 18 24 31
27 13 3 29 15 35 26 8 16 5 22 -20 37 -16 9 -30 21 -30 25 0 9 -156 2 -171 -7
-5 -4 -12 1 -15 9 -3 9 -10 14 -15 11 -4 -3 -16 6 -25 20 -9 14 -25 25 -35 25
-11 0 -19 5 -19 10 0 6 -6 10 -13 10 -7 0 -23 9 -34 20 -15 13 -31 18 -52 15
-27 -3 -31 0 -31 20 0 13 4 26 10 30 5 3 6 13 3 21 -5 14 -3 15 15 5 12 -7 22
-19 23 -29 0 -13 3 -12 11 6 6 12 17 22 25 22 7 0 13 11 13 25 0 16 6 25 15
25 18 0 19 9 5 46 -8 21 -8 29 2 36 9 5 8 8 -6 8 -15 0 -16 3 -6 15 7 8 11 34
8 60 -2 25 1 45 6 45 5 0 0 10 -12 23 -12 13 -22 32 -22 43 0 10 -10 25 -21
32 -20 13 -21 19 -15 85 9 87 24 113 76 128 34 10 46 10 73 -3 38 -19 88 -97
125 -199 25 -66 52 -102 67 -88 3 4 -1 31 -9 62 -8 31 -18 76 -21 101 -7 42
-6 46 14 46 24 0 39 -30 35 -69 -4 -35 15 -53 89 -87 53 -25 74 -29 147 -29
82 1 160 18 160 35 0 4 -23 8 -51 8 -69 1 -109 11 -109 27 0 7 -6 15 -12 18
-12 4 40 36 72 45 38 10 94 14 126 8 32 -6 38 -14 65 -73 17 -36 36 -81 43
-101 15 -42 29 -45 34 -8 2 14 12 28 23 31 10 4 21 16 23 28 3 12 12 56 22 97
10 41 17 101 17 133 l-1 57 70 0 71 0 -7 -52 c-4 -29 -7 -62 -9 -73 -1 -11 5
-21 15 -23 19 -4 31 16 48 84 7 31 16 43 34 48 20 5 24 13 29 68 3 35 3 66 -1
69 -4 4 -60 14 -124 24 -68 11 -118 23 -118 29 0 6 7 54 16 106 9 52 16 103
17 113 1 9 4 17 8 17 3 0 5 29 3 64 -2 35 3 97 11 137 28 131 15 276 -29 314
-22 19 -71 84 -71 95 -1 13 -23 38 -52 58 -18 13 -41 36 -52 51 l-21 29 25 0
c15 0 27 -8 30 -19 4 -11 11 -17 16 -13 5 3 16 -10 25 -28 l15 -33 -5 34 c-7
37 -7 37 54 -14 14 -11 -1 8 -33 42 -54 58 -71 83 -46 67 8 -4 8 0 0 15 -7 11
-17 21 -24 21 -7 0 -4 5 7 11 41 24 92 100 81 120 -3 4 6 6 19 3 l25 -4 -2
123 c-2 106 -5 126 -21 142 -18 19 -19 19 -13 0 3 -11 8 -38 12 -60 l5 -40
-19 42 c-11 24 -22 60 -25 80 -3 21 -3 30 0 21 3 -10 10 -18 15 -18 13 0 6 12
-56 90 -28 36 -72 97 -98 135 -64 97 -190 230 -240 255 -23 11 -62 32 -87 47
l-45 26 25 -27 c14 -16 42 -37 62 -47 22 -11 35 -24 32 -32 -3 -8 9 -19 28
-28 30 -13 138 -140 138 -163 0 -4 -26 18 -57 51 -32 32 -78 69 -103 82 -25
13 -47 26 -50 30 -33 49 -257 141 -341 141 -22 0 -61 11 -87 24 -69 35 -113
43 -252 49 -85 4 -142 1 -178 -8z m6 -92 c-10 -2 -28 -2 -40 0 -13 2 -5 4 17
4 22 1 32 -1 23 -4z m668 -138 c18 -13 18 -14 -4 -8 -12 3 -25 9 -28 14 -8 14
10 11 32 -6z m-1327 -25 c-24 -14 -110 -42 -115 -37 -8 8 70 42 101 44 23 2
26 0 14 -7z m1441 -93 c0 -13 -29 12 -42 37 -10 19 -8 18 16 -3 14 -14 26 -29
26 -34z m-496 -138 c-4 -6 -11 -6 -20 2 -21 17 -17 31 6 19 11 -6 18 -15 14
-21z m162 -12 c15 -23 18 -34 9 -34 -7 0 -20 15 -29 34 -20 43 -7 43 20 0z
m734 -30 c0 -5 -4 -5 -10 -2 -5 3 -10 14 -10 23 0 15 2 15 10 2 5 -8 10 -19
10 -23z m-955 13 c3 -5 1 -10 -4 -10 -6 0 -11 5 -11 10 0 6 2 10 4 10 3 0 8
-4 11 -10z m1000 -31 c9 -17 14 -33 12 -36 -4 -3 -37 53 -37 64 0 11 12 -1 25
-28z m-1059 -66 c-3 -8 -6 -20 -6 -26 0 -14 -29 24 -30 40 0 6 8 9 21 6 12 -4
18 -11 15 -20z m1153 -173 c0 -23 -1 -23 -9 -5 -5 11 -9 29 -9 40 -1 17 1 17
9 5 5 -8 9 -26 9 -40z m-1022 -48 c11 9 13 8 11 -2 -2 -7 3 -15 10 -17 6 -3
12 0 12 6 0 6 12 11 26 11 14 0 23 -4 20 -8 -7 -12 68 -9 76 3 5 6 12 5 20 -3
6 -6 22 -12 35 -12 13 0 23 -4 23 -10 0 -5 11 -12 25 -16 14 -3 31 -14 38 -23
6 -9 30 -18 52 -19 22 -2 43 -10 48 -17 6 -11 65 -27 112 -29 40 -3 115 -38
159 -74 41 -35 67 -72 134 -195 125 -229 151 -325 172 -642 6 -88 13 -173 15
-188 l5 -28 -29 20 c-25 18 -30 19 -49 5 -17 -11 -26 -12 -42 -4 -14 8 -26 8
-40 0 -14 -8 -26 -8 -41 0 -11 7 -27 9 -35 6 -8 -3 -14 -1 -14 4 0 6 7 10 15
10 26 0 5 25 -30 36 -30 9 -38 8 -57 -7 -27 -24 -35 -24 -43 0 -3 11 -14 20
-23 20 -9 0 -39 2 -65 5 -28 3 -57 1 -69 -5 -16 -8 -23 -8 -30 2 -7 11 -11 11
-15 2 -2 -7 -9 -13 -15 -13 -6 0 -35 -11 -63 -25 -39 -18 -56 -33 -63 -54 -15
-42 -65 -54 -177 -42 -106 12 -141 28 -137 59 4 26 -15 55 -30 46 -5 -3 -15
-1 -22 5 -8 7 -18 11 -22 10 -17 -4 -69 14 -96 32 -28 20 -53 25 -43 9 3 -5 2
-10 -4 -10 -5 0 -12 4 -16 9 -8 14 -91 25 -112 15 -10 -4 -29 -9 -43 -10 -14
0 -33 -4 -42 -9 -13 -5 -18 -3 -18 9 0 20 -48 22 -64 2 -13 -17 -82 -34 -72
-17 8 12 -34 7 -96 -11 -29 -9 -41 -8 -53 2 -14 12 -15 14 -1 22 8 5 13 15 10
23 -4 8 -10 12 -15 9 -5 -3 -7 -10 -4 -15 4 -5 1 -9 -5 -9 -6 0 -10 6 -9 13 3
25 -2 33 -21 34 -13 1 -18 -2 -14 -9 5 -7 1 -9 -9 -5 -20 7 -53 -33 -36 -44 7
-4 4 -9 -6 -13 -21 -8 -40 -8 -32 0 4 4 -7 14 -24 23 -26 14 -32 24 -34 59 -3
35 -1 41 10 32 9 -8 14 -6 18 9 3 12 -1 22 -9 25 -8 3 -14 13 -14 21 0 9 -4
14 -9 10 -5 -3 -13 0 -17 6 -4 8 -3 9 4 5 8 -5 12 0 12 13 0 12 5 21 11 21 19
0 2 130 -18 145 -10 7 -22 11 -27 8 -5 -4 -6 -1 -2 5 4 6 13 9 21 5 8 -3 15 0
15 7 0 23 -21 50 -40 50 -11 0 -20 7 -20 15 0 8 5 15 10 15 14 0 12 16 -5 33
-8 8 -11 17 -8 21 4 3 2 6 -3 6 -6 0 -15 -5 -22 -12 -8 -8 -12 -9 -12 -1 0 6
5 13 11 15 8 3 10 16 5 41 -9 48 -31 50 -23 2 4 -22 2 -33 -4 -29 -5 3 -17 0
-26 -8 -12 -9 -15 -9 -9 0 4 7 2 12 -6 13 -9 0 -10 2 -1 5 8 4 9 13 3 30 -5
13 -6 25 -2 25 4 1 12 2 17 3 6 0 11 5 12 11 2 14 37 24 50 13 7 -5 14 -5 18
2 3 5 0 10 -8 10 -8 0 -17 14 -21 31 -10 50 -7 59 14 59 21 0 27 24 9 35 -7 5
-4 14 7 26 9 10 14 19 11 19 -4 0 1 9 11 20 9 11 19 30 22 43 7 27 92 93 130
101 15 3 34 11 42 19 20 20 70 30 99 18 17 -6 37 -5 62 4 21 7 84 16 140 20
56 4 111 9 122 10 11 2 47 6 80 10 33 5 62 12 65 16 4 5 26 10 50 13 25 2 49
11 55 20 7 9 19 16 27 16 9 0 28 7 44 15 18 9 32 11 38 5 6 -6 15 -5 23 2z
m1024 -55 c-13 -13 -15 21 -3 50 6 15 8 13 10 -11 2 -16 -1 -33 -7 -39z
m-2111 -356 c0 -6 -4 -12 -10 -16 -5 -3 -7 -12 -4 -20 3 -7 -2 -25 -11 -38
-12 -20 -13 -26 -3 -30 7 -2 1 -4 -14 -4 -31 -1 -30 -1 -22 21 3 9 10 13 15
10 10 -6 25 24 16 32 -3 3 -16 0 -29 -7 -20 -11 -21 -10 -11 3 7 8 10 17 7 21
-3 3 5 3 18 0 12 -3 20 -2 16 2 -4 5 -3 14 3 22 13 15 29 17 29 4z m563 -890
c11 -11 -87 -19 -114 -9 -10 4 -19 13 -19 19 0 14 118 5 133 -10z m52 -35 c23
-7 40 -18 40 -26 0 -12 -14 -15 -62 -14 -103 2 -144 22 -90 44 30 12 64 11
112 -4z m1240 -10 c14 -9 25 -12 25 -7 0 16 79 24 95 11 13 -11 13 -14 -2 -26
-17 -13 -17 -13 1 -14 11 0 17 -3 13 -6 -3 -4 -14 -3 -24 1 -10 4 -36 9 -58
11 -22 2 -47 7 -55 10 -15 7 -27 9 -120 19 -30 4 -59 11 -65 17 -17 18 161 3
190 -16z m235 -5 c0 -11 -4 -23 -10 -26 -6 -4 -6 -12 2 -24 16 -26 2 -82 -29
-116 l-27 -29 -7 25 c-4 13 -7 36 -8 51 -1 15 -10 33 -22 41 -13 9 -16 17 -10
22 6 3 11 0 11 -7 0 -8 8 -4 18 9 9 11 26 23 37 25 11 2 20 10 21 18 2 26 4
30 14 30 6 0 10 -9 10 -19z m-62 -16 c-3 -3 -9 2 -12 12 -6 14 -5 15 5 6 7 -7
10 -15 7 -18z m-1568 5 c0 -5 -4 -10 -10 -10 -5 0 -10 5 -10 10 0 6 5 10 10
10 6 0 10 -4 10 -10z m1325 -18 c36 -18 32 -19 -68 -25 -78 -4 -114 7 -99 29
16 26 114 23 167 -4z m-1085 -1 c0 -14 -18 -23 -31 -15 -8 4 -7 9 2 15 18 11
29 11 29 0z m190 -107 c0 -18 -24 -18 -39 0 -9 11 -9 15 1 19 19 6 38 -3 38
-19z m-900 -44 c6 -11 19 -20 29 -20 17 0 31 -18 31 -40 0 -7 -49 -31 -67 -33
-4 0 -23 -4 -40 -8 -26 -5 -33 -4 -33 9 0 8 -7 23 -15 32 -15 16 -10 64 6 54
5 -3 12 2 15 10 9 24 61 20 74 -4z m725 -8 c16 -12 16 -62 -1 -62 -8 0 -14 7
-14 15 0 10 -10 15 -27 15 -22 0 -25 -3 -13 -10 12 -7 10 -9 -7 -7 -12 0 -21
5 -20 11 1 5 -29 11 -68 12 -89 3 -105 5 -105 15 0 14 238 24 255 11z m-625
-22 c13 -9 13 -11 0 -20 -22 -14 -27 -12 -33 10 -6 22 9 26 33 10z m725 0 c4
-6 1 -18 -6 -26 -11 -13 -9 -14 12 -10 30 8 47 -3 52 -32 2 -12 9 -28 15 -34
15 -15 16 -84 2 -93 -5 -3 -10 -15 -10 -26 0 -10 -4 -19 -10 -19 -5 0 -10 -6
-10 -13 0 -7 -20 -29 -44 -50 -67 -56 -152 -75 -371 -82 -191 -7 -224 -9 -320
-20 -132 -14 -137 -13 -159 38 -11 23 -20 59 -20 79 -1 20 -4 40 -8 44 -14 14
-7 49 15 76 29 36 137 75 198 72 25 -1 63 -11 85 -23 21 -12 46 -21 55 -21 8
0 19 -3 22 -7 8 -8 44 -10 172 -11 55 0 112 -1 128 -1 15 0 27 4 27 9 0 5 6 7
14 4 9 -3 16 4 20 22 4 14 10 24 13 20 3 -3 21 5 39 19 18 14 39 25 46 25 8 0
9 3 3 8 -5 4 -11 12 -12 17 -1 6 -4 17 -8 25 -4 12 2 16 24 18 16 1 33 -3 36
-8z m865 -3 c92 5 96 4 87 -22 -8 -18 -93 -19 -176 -2 -78 17 -81 40 -4 30 32
-4 74 -7 93 -6z m330 -19 c-23 -19 -24 -19 -31 -1 -4 13 0 20 15 24 33 9 41
-2 16 -23z m-1614 -20 c4 -5 -4 -8 -17 -6 -12 1 -24 8 -26 15 -5 14 34 6 43
-9z m421 -330 c17 -24 14 -77 -6 -115 -41 -77 -91 -241 -85 -280 1 -7 2 -24 3
-38 1 -26 53 -88 80 -97 11 -3 9 -9 -9 -26 -13 -12 -26 -19 -30 -17 -3 2 -23
0 -43 -5 -47 -10 -74 -3 -80 20 -3 13 -11 16 -31 13 -26 -5 -37 -23 -13 -23
26 0 -19 -20 -47 -20 -20 0 -27 -4 -23 -14 8 -21 -4 -28 -18 -10 -10 15 -15
14 -38 -12 -15 -16 -27 -34 -27 -41 0 -6 -5 -13 -12 -15 -6 -2 -13 -14 -15
-27 -4 -30 33 -61 67 -54 17 3 35 -3 53 -17 15 -12 47 -32 70 -44 23 -13 42
-29 43 -37 1 -38 18 -82 40 -108 22 -27 25 -69 3 -55 -13 8 -11 -10 3 -24 9
-9 9 -12 -1 -12 -9 0 -11 -7 -6 -22 17 -58 22 -98 11 -99 -6 0 -4 -3 4 -6 8
-4 21 -12 28 -20 7 -7 22 -13 32 -13 10 0 22 -4 25 -10 3 -5 14 -10 23 -10 10
0 25 -9 35 -20 23 -27 60 -25 88 5 32 34 57 48 56 32 -2 -55 3 -68 23 -62 28
9 25 -15 -6 -44 -17 -17 -28 -21 -35 -14 -6 6 -19 8 -30 6 -14 -4 -16 -9 -9
-23 7 -13 5 -22 -9 -34 -10 -9 -21 -13 -26 -9 -4 5 -5 -7 -2 -24 4 -19 2 -33
-3 -33 -6 0 -10 15 -10 33 0 17 -7 40 -14 49 -12 16 -15 15 -38 -10 -14 -15
-28 -35 -31 -45 -4 -9 -10 -16 -14 -15 -4 0 -21 -4 -36 -10 -36 -15 -50 -15
-41 0 4 7 3 8 -4 4 -7 -4 -22 4 -36 18 -27 30 -36 32 -36 11 0 -8 -4 -15 -10
-15 -6 0 -6 9 0 26 8 21 8 25 -4 21 -17 -7 -59 21 -51 34 4 5 1 9 -5 9 -7 0
-10 7 -6 15 3 10 -1 15 -13 15 -15 0 -24 15 -39 60 -12 37 -15 59 -8 58 6 -2
12 0 14 5 6 18 0 27 -17 27 -13 0 -21 8 -23 22 -2 16 -18 30 -50 45 -27 13
-48 27 -48 32 0 17 20 23 35 11 8 -6 19 -9 24 -6 5 4 17 -4 26 -16 l17 -23 -5
22 c-3 13 0 26 5 29 6 4 3 11 -8 17 -13 7 -19 7 -22 -1 -2 -7 -8 -12 -13 -12
-6 0 -7 6 -3 12 10 16 13 48 4 43 -4 -2 -22 6 -41 18 -43 28 -95 36 -86 13 3
-8 3 -18 -2 -20 -10 -6 -41 30 -41 48 0 8 -7 13 -16 12 -18 -1 -21 4 -59 87
-15 33 -24 66 -20 74 3 10 -3 24 -16 36 l-22 21 5 -26 c4 -19 1 -25 -9 -21
-14 6 -16 14 -13 51 2 24 -18 82 -30 92 -12 9 -21 78 -11 84 5 4 7 22 4 41 -3
19 -3 35 0 35 3 0 20 -20 37 -45 28 -41 34 -45 70 -43 22 1 40 6 40 11 0 6 8
19 17 29 13 14 14 21 5 30 -7 7 -12 17 -12 23 0 5 5 3 11 -5 8 -12 9 -9 5 12
-3 15 -2 30 4 33 5 3 10 0 10 -8 0 -7 7 -14 15 -14 16 0 21 36 5 38 -5 1 -14
3 -20 4 -5 1 -16 3 -24 4 -10 1 -13 12 -11 36 3 25 -1 35 -10 35 -19 0 -39 37
-24 45 7 5 1 17 -16 35 -22 23 -24 28 -11 33 23 9 20 44 -5 50 -15 4 -19 2
-15 -8 3 -8 1 -17 -4 -20 -10 -6 -11 -5 -15 32 -4 37 63 71 169 88 21 4 125
12 230 20 121 8 205 19 226 28 44 19 46 20 57 5z m36 -2 c3 -8 0 -16 -6 -19
-7 -3 -13 3 -13 14 0 22 12 25 19 5z m123 -171 c2 -11 -2 -25 -7 -31 -7 -8 -6
-13 3 -16 8 -3 2 -11 -14 -22 -28 -18 -48 -15 -48 9 0 8 -7 18 -16 23 -15 8
-15 12 0 39 14 27 19 30 47 24 21 -4 33 -13 35 -26z m14 -83 c0 -4 -9 -8 -21
-9 -17 -2 -18 1 -9 12 12 14 30 12 30 -3z m-2466 -138 c3 -8 2 -12 -4 -9 -6 3
-10 10 -10 16 0 14 7 11 14 -7z m1486 -25 c0 -5 -4 -9 -10 -9 -5 0 -10 7 -10
16 0 8 5 12 10 9 6 -3 10 -10 10 -16z m1351 -96 c13 -16 12 -17 -3 -4 -17 13
-22 21 -14 21 2 0 10 -8 17 -17z m-29 -45 c-7 -7 -12 -8 -12 -2 0 14 12 26 19
19 2 -3 -1 -11 -7 -17z m-2872 -17 c0 -10 -26 -9 -36 2 -4 4 2 7 14 7 12 0 22
-4 22 -9z m2833 -77 c31 -10 58 -21 58 -26 1 -4 3 -12 4 -18 1 -5 3 -14 4 -20
0 -5 4 -9 9 -9 21 4 23 -3 8 -20 -18 -20 -44 -18 -58 3 -6 8 -10 8 -15 1 -12
-16 -111 -14 -117 2 -3 8 -17 11 -37 9 -17 -2 -46 1 -64 7 -31 9 -33 13 -29
44 3 25 1 34 -8 31 -7 -3 -14 -10 -14 -16 -1 -7 -2 -16 -3 -21 0 -5 -16 -9
-33 -8 -26 2 -34 7 -36 25 -2 12 1 22 7 22 6 0 11 -4 11 -10 0 -16 24 -12 40
8 8 9 21 28 27 42 7 14 12 18 12 10 -3 -36 1 -44 13 -32 20 20 29 14 24 -15
-5 -24 -4 -25 10 -11 8 8 16 24 17 36 0 12 3 20 5 18 2 -2 15 2 29 9 24 13 28
12 52 -15 16 -17 49 -35 84 -46z m-646 54 c-2 -7 -11 -12 -21 -10 -9 2 -16 -4
-16 -13 0 -9 -5 -13 -11 -10 -7 5 -4 14 7 26 19 21 48 26 41 7z m16 -29 c-12
-23 -18 -28 -24 -18 -6 10 -1 20 14 31 12 10 23 18 24 18 1 0 -6 -14 -14 -31z
m827 -211 c0 -5 -14 0 -30 12 -17 12 -27 26 -24 32 6 10 54 -29 54 -44z m-75
-9 c4 -6 4 -25 1 -44 -6 -28 -13 -36 -44 -46 -20 -7 -45 -12 -54 -10 -10 1
-18 -4 -18 -11 0 -9 -3 -9 -10 2 -8 12 -10 11 -10 -6 0 -12 -7 -24 -15 -28 -9
-3 -15 0 -15 8 0 18 -23 27 -41 15 -18 -11 -59 -12 -59 0 0 5 -10 9 -22 9 -64
-1 -128 18 -128 38 0 8 -7 14 -15 14 -19 0 -19 14 1 30 11 10 23 11 42 4 17
-6 51 -6 92 0 36 5 94 9 129 7 35 -1 68 3 75 8 10 8 38 16 73 20 6 0 15 -4 18
-10z m-3050 -10 c11 -17 -1 -21 -15 -4 -8 9 -8 15 -2 15 6 0 14 -5 17 -11z
m2003 -184 c-3 -3 -9 2 -12 12 -6 14 -5 15 5 6 7 -7 10 -15 7 -18z m845 -31
c22 -8 23 -44 0 -44 -13 0 -14 -3 -5 -12 7 -7 12 -19 11 -27 0 -16 -49 75 -49
92 0 5 6 6 13 3 6 -3 20 -9 30 -12z m-207 -16 c8 12 19 20 23 17 11 -6 1 -58
-13 -67 -6 -4 -7 -11 -2 -15 5 -4 11 -2 13 5 7 19 23 14 23 -8 0 -11 -7 -20
-15 -20 -8 0 -15 -4 -15 -10 0 -5 -7 -7 -15 -4 -8 4 -15 17 -15 29 0 13 -4 27
-10 30 -5 3 -10 21 -9 38 0 31 1 31 10 8 l10 -25 15 22z m124 -9 c0 -5 -4 -9
-10 -9 -5 0 -10 -12 -10 -26 0 -14 -4 -23 -9 -19 -5 3 -11 -3 -13 -12 -3 -10
-5 5 -5 33 -1 48 0 51 23 46 13 -2 24 -8 24 -13z m-173 -11 c-3 -8 -6 -5 -6 6
-1 11 2 17 5 13 3 -3 4 -12 1 -19z m-512 -58 c3 -5 1 -10 -4 -10 -6 0 -11 5
-11 10 0 6 2 10 4 10 3 0 8 -4 11 -10z m-2011 -52 c-2 -3 2 -9 8 -12 7 -2 3
-4 -10 -2 -33 3 -51 24 -19 23 14 -1 23 -5 21 -9z m-9 -78 c-3 -5 -12 -10 -18
-10 -7 0 -6 4 3 10 19 12 23 12 15 0z m2551 -102 c-2 -30 -9 -44 -20 -46 -9
-2 -16 2 -16 8 0 13 30 80 36 80 2 0 2 -19 0 -42z m-2556 22 c-8 -5 -10 -10
-5 -10 6 0 4 -4 -4 -9 -8 -5 -20 -7 -28 -4 -10 4 -8 9 9 18 27 15 50 19 28 5z
m2420 -55 c0 -14 -4 -25 -10 -25 -11 0 -14 33 -3 43 11 11 13 8 13 -18z m174
-37 c19 -13 26 -9 27 15 0 22 0 22 10 -2 5 -14 7 -31 4 -39 -7 -19 -65 23 -64
46 0 14 2 14 6 2 3 -8 11 -18 17 -22z m469 -18 c3 -11 1 -20 -4 -20 -5 0 -9 2
-9 4 0 2 -3 11 -6 20 -3 9 -2 16 4 16 5 0 12 -9 15 -20z m-566 -42 c-3 -8 -6
-5 -6 6 -1 11 2 17 5 13 3 -3 4 -12 1 -19z m286 4 c-2 -6 4 -9 12 -6 10 4 15
0 15 -14 0 -12 -4 -23 -8 -26 -10 -6 -42 29 -42 45 0 5 -5 7 -12 3 -7 -4 -8
-3 -4 5 10 15 42 9 39 -7z m167 14 c0 -3 -4 -8 -10 -11 -5 -3 -10 -1 -10 4 0
6 5 11 10 11 6 0 10 -2 10 -4z m-411 -48 c-9 -16 -14 -19 -17 -9 -2 7 2 17 9
22 20 13 21 11 8 -13z m-2579 2 c0 -5 -2 -10 -4 -10 -3 0 -8 5 -11 10 -3 6 -1
10 4 10 6 0 11 -4 11 -10z m2771 -63 c-13 -13 -26 -3 -16 12 3 6 11 8 17 5 6
-4 6 -10 -1 -17z m-41 -21 c0 -3 -4 -8 -10 -11 -5 -3 -10 -1 -10 4 0 6 5 11
10 11 6 0 10 -2 10 -4z"/>
<path d="M1840 3355 c-7 -9 -8 -15 -2 -15 5 0 12 7 16 15 3 8 4 15 2 15 -2 0
-9 -7 -16 -15z"/>
<path d="M1857 3290 c3 -11 9 -17 14 -15 10 7 1 35 -11 35 -5 0 -6 -9 -3 -20z"/>
<path d="M1978 3134 c-3 -10 -9 -27 -13 -36 -4 -11 -3 -18 4 -18 6 0 11 6 11
14 0 8 4 16 9 18 4 2 5 12 1 22 -7 20 -7 20 -12 0z"/>
<path d="M2310 2789 c0 -5 5 -7 10 -4 6 3 10 8 10 11 0 2 -4 4 -10 4 -5 0 -10
-5 -10 -11z"/>
<path d="M2112 1708 c-17 -17 -15 -45 3 -52 11 -4 19 3 25 20 15 38 -2 58 -28
32z"/>
<path d="M1960 1346 c0 -9 5 -16 10 -16 6 0 10 4 10 9 0 6 -4 13 -10 16 -5 3
-10 -1 -10 -9z"/>
<path d="M2430 820 c0 -5 7 -10 15 -10 8 0 15 5 15 10 0 6 -7 10 -15 10 -8 0
-15 -4 -15 -10z"/>
<path d="M3805 3560 c3 -5 8 -10 11 -10 2 0 4 5 4 10 0 6 -5 10 -11 10 -5 0
-7 -4 -4 -10z"/>
<path d="M3260 2023 c1 -16 39 -53 66 -64 28 -11 400 -29 437 -21 9 3 17 8 17
13 0 5 -81 9 -180 9 -200 0 -267 10 -310 47 -17 14 -30 21 -30 16z"/>
<path d="M3340 1763 c0 -10 27 -45 60 -78 86 -87 168 -183 175 -206 10 -29 37
-4 29 26 -4 15 0 24 10 28 9 4 16 16 16 27 0 16 -7 20 -30 20 -32 0 -78 39
-60 50 7 4 5 11 -4 20 -9 7 -14 16 -11 20 7 12 -60 67 -110 90 -54 25 -75 25
-75 3z"/>
<path d="M3650 1570 c0 -5 5 -10 10 -10 6 0 10 5 10 10 0 6 -4 10 -10 10 -5 0
-10 -4 -10 -10z"/>
<path d="M3213 1463 c4 -6 20 -16 37 -21 24 -9 30 -8 30 4 0 7 -6 14 -12 14
-7 0 -24 3 -37 7 -16 4 -22 2 -18 -4z"/>
<path d="M3790 1425 c0 -8 2 -15 4 -15 2 0 6 7 10 15 3 8 1 15 -4 15 -6 0 -10
-7 -10 -15z"/>
<path d="M3338 1413 c7 -3 16 -2 19 1 4 3 -2 6 -13 5 -11 0 -14 -3 -6 -6z"/>
<path d="M92 1051 c-11 -7 -10 -10 3 -15 25 -9 45 -7 45 5 0 6 -6 9 -14 6 -8
-3 -16 -2 -18 3 -2 5 -9 6 -16 1z"/>
<path d="M82 944 c9 -9 21 -15 27 -13 6 2 -2 10 -17 17 -25 11 -25 11 -10 -4z"/>
<path d="M3080 836 c0 -9 5 -16 10 -16 6 0 10 4 10 9 0 6 -4 13 -10 16 -5 3
-10 -1 -10 -9z"/>
<path d="M3575 830 c-4 -6 -11 -8 -16 -4 -25 15 7 -55 42 -91 21 -22 51 -67
66 -100 25 -54 28 -70 28 -170 l0 -111 -51 -104 c-28 -58 -69 -135 -91 -172
-25 -41 -37 -68 -29 -71 6 -2 70 -2 141 -1 72 1 357 2 633 3 l504 1 -3 108
c-2 59 -5 115 -7 124 -3 13 -152 88 -176 88 -8 0 -201 92 -423 201 -100 49
-187 89 -192 89 -17 0 -225 91 -241 105 -8 7 -27 16 -42 20 -14 4 -49 27 -78
51 -57 49 -56 48 -65 34z"/>
<path d="M2986 625 c-11 -8 -17 -17 -14 -20 2 -3 13 4 23 15 21 23 18 25 -9 5z"/>
<path d="M2886 545 c-3 -8 -1 -15 4 -15 13 0 22 18 11 24 -5 3 -11 -1 -15 -9z"/>
<path d="M110 516 c0 -2 7 -7 16 -10 8 -3 12 -2 9 4 -6 10 -25 14 -25 6z"/>
<path d="M1491 134 c0 -11 3 -14 6 -6 3 7 2 16 -1 19 -3 4 -6 -2 -5 -13z"/>
</g>
</svg>
